<svg width="16" height="16" viewBox="0 0 16 16" fill="none" xmlns="http://www.w3.org/2000/svg">
<path d="M11.2281 13.7112C11.7767 13.7112 12.2213 13.2665 12.2213 12.7179C12.2213 12.1694 11.7767 11.7247 11.2281 11.7247C10.6796 11.7247 10.2349 12.1694 10.2349 12.7179C10.2349 13.2665 10.6796 13.7112 11.2281 13.7112Z" stroke="#795548" stroke-width="0.496622" stroke-miterlimit="10" stroke-linecap="round" stroke-linejoin="round"/>
<path d="M6.2618 13.7112C6.81035 13.7112 7.25504 13.2665 7.25504 12.7179C7.25504 12.1694 6.81035 11.7247 6.2618 11.7247C5.71324 11.7247 5.26855 12.1694 5.26855 12.7179C5.26855 13.2665 5.71324 13.7112 6.2618 13.7112Z" stroke="#795548" stroke-width="0.496622" stroke-miterlimit="10" stroke-linecap="round" stroke-linejoin="round"/>
<path d="M3.76634 4.27535L3.5801 3.33176C3.4932 2.87239 3.08348 2.53717 2.61169 2.53717H1.71777M11.3398 5.76521H11.7123M4.15122 5.76521H10.2224M3.77875 4.27535H14.0961C14.4437 4.27535 14.6796 4.62298 14.5554 4.94579L12.5814 10.0858C12.4324 10.4831 12.0599 10.7314 11.6502 10.7314H5.83973C5.36794 10.7314 4.95823 10.3962 4.85891 9.92442L3.77875 4.27535Z" stroke="#795548" stroke-width="0.496622" stroke-miterlimit="10" stroke-linecap="round" stroke-linejoin="round"/>
</svg>
