<svg width="14" height="14" viewBox="0 0 14 14" fill="none" xmlns="http://www.w3.org/2000/svg">
<path fill-rule="evenodd" clip-rule="evenodd" d="M13.4543 5.48633C13.1963 4.38899 12.051 4.33233 11.1303 4.28633C10.551 4.25699 9.95168 4.22766 9.70101 3.96833C9.44568 3.70433 9.24634 3.19833 9.05234 2.70899C8.67434 1.75166 8.24568 0.666992 7.16634 0.666992C6.08768 0.666992 5.6597 1.75166 5.28103 2.70899C5.0877 3.19833 4.8877 3.70433 4.63303 3.96833C4.3817 4.22766 3.78236 4.25699 3.20303 4.28633C2.28236 4.33233 1.13703 4.38899 0.87903 5.48633C0.634363 6.52767 1.39903 7.15767 2.0737 7.71367C2.53503 8.09367 2.97103 8.45367 3.0677 8.89367C3.1617 9.321 3.02036 9.873 2.8837 10.4077C2.64903 11.327 2.38236 12.3683 3.27236 13.0397C3.55036 13.2497 3.83236 13.333 4.11103 13.333C4.71436 13.333 5.30236 12.9437 5.80568 12.6103C6.27168 12.3023 6.75368 11.983 7.16634 11.983C7.57901 11.983 8.06168 12.3023 8.52701 12.6103C9.26368 13.0977 10.1797 13.703 11.0617 13.0397C11.9517 12.3683 11.685 11.3263 11.4497 10.4063C11.313 9.87233 11.1723 9.32033 11.2657 8.89367C11.3623 8.45367 11.7983 8.09433 12.2597 7.71367C12.9343 7.15767 13.699 6.52767 13.4543 5.48633Z" fill="#E8B931"/>
</svg>
